# xmcd
#
# Track frame offsets: 
#        150
#        21284
#        37860
#        49245
#        60841
#        79385
#        88938
#        106587
#        124680
#        147004
#        165011
#        187152
#        208561
#        229636
#        247711
#
# Disc length: 3403 seconds
#
# Revision: 3
# Processed by: cddbd v1.5.1PL2 Copyright (c) Steve Scherf et al.
# Submitted via: ExactAudioCopy v0.95b4
#
DISCID=b20d490f
DTITLE=Various Artist - VA FemaleFuture (Phazz A Delic Uppercuts Vol.
DTITLE=2)
DYEAR=2005
DGENRE=Lounge
TTITLE0=Sej - Yappari
TTITLE1=Milky Lasers - Never Fall
TTITLE2=Christina Lux - Faith
TTITLE3=Monaural Voice - Smile
TTITLE4=E.L.O.W. - I died...
TTITLE5=Plaisir Du Cineaste -  Plaisir
TTITLE6=Sunday People - Swing with me (ff-edit)
TTITLE7=Electric Brother feat. Martha Hristea - Histories2 (ReWork)
TTITLE8=Barbara Lahr - Mother Earth
TTITLE9=Jen Meets Levent Canseven - Temptation and Seduction
TTITLE10=Cordclub - Humpty Dance
TTITLE11=Public Sound Office - L'Amour et la Mer
TTITLE12=Trans Mo Gri-Fi - Mad Song (The 1st Sessions)
TTITLE13=Fleckfumie - Stille Nächte
TTITLE14=Amorf Ördögök - Gyere
EXTD=YEAR: 2005
EXTT0=
EXTT1=
EXTT2=
EXTT3=
EXTT4=
EXTT5=
EXTT6=
EXTT7=
EXTT8=
EXTT9=
EXTT10=
EXTT11=
EXTT12=
EXTT13=
EXTT14=
PLAYORDER=
